<?xml version="1.0" encoding="UTF-8" standalone="no"?>
<!-- Created with Inkscape (http://www.inkscape.org/) -->

<svg
   width="7.9375mm"
   height="7.9375mm"
   viewBox="0 0 7.9375 7.9375001"
   version="1.1"
   id="svg1"
   xml:space="preserve"
   inkscape:version="1.4.2 (ebf0e940d0, 2025-05-08)"
   sodipodi:docname="icons.svg"
   inkscape:export-batch-path="../../src/textures"
   inkscape:export-batch-name=""
   xmlns:inkscape="http://www.inkscape.org/namespaces/inkscape"
   xmlns:sodipodi="http://sodipodi.sourceforge.net/DTD/sodipodi-0.dtd"
   xmlns="http://www.w3.org/2000/svg"
   xmlns:svg="http://www.w3.org/2000/svg"><sodipodi:namedview
     id="namedview1"
     pagecolor="#ffffff"
     bordercolor="#000000"
     borderopacity="0.25"
     inkscape:showpageshadow="2"
     inkscape:pageopacity="0.0"
     inkscape:pagecheckerboard="0"
     inkscape:deskcolor="#d1d1d1"
     inkscape:document-units="mm"
     inkscape:zoom="1.0141844"
     inkscape:cx="0"
     inkscape:cy="653.72727"
     inkscape:window-width="1920"
     inkscape:window-height="1003"
     inkscape:window-x="1920"
     inkscape:window-y="0"
     inkscape:window-maximized="1"
     inkscape:current-layer="layer1"
     showgrid="false"
     showguides="true"><inkscape:page
       x="0"
       y="0"
       width="7.9375"
       height="7.9375"
       id="page26"
       inkscape:label="BeginingButton_norm"
       margin="0"
       bleed="0" /><inkscape:page
       x="10.64209"
       y="7.6293945e-06"
       width="7.9375"
       height="7.9375"
       id="page27"
       inkscape:label="BeginingButton_hover"
       margin="0"
       bleed="0" /><inkscape:page
       x="21.28421"
       y="0"
       width="7.9375"
       height="7.9375"
       id="page28"
       inkscape:label="BeginingButton_pressed"
       margin="0"
       bleed="0" /><inkscape:page
       x="3.9784841e-06"
       y="14.535083"
       width="7.9375"
       height="7.9375"
       id="page29"
       margin="0"
       bleed="0"
       inkscape:label="HunfoldButton" /><inkscape:page
       x="10.979343"
       y="14.665522"
       width="7.9375"
       height="7.9375001"
       id="page30"
       inkscape:label="HunfoldButton_hl" /><inkscape:page
       x="21.533973"
       y="14.665532"
       width="7.9375"
       height="7.9375001"
       id="page31"
       inkscape:label="HunfoldButton_pressed" /><inkscape:page
       x="-0.55341124"
       y="33.120575"
       width="7.9375"
       height="7.9375001"
       id="page32"
       inkscape:label="unfoldButton" /><inkscape:page
       x="10.088696"
       y="33.120575"
       width="7.9375"
       height="7.9375001"
       id="page33"
       inkscape:label="unfoldButton_hl" /><inkscape:page
       x="20.73081"
       y="33.120575"
       width="7.9375"
       height="7.9375001"
       id="page34"
       inkscape:label="unfoldButton_pressed" /><inkscape:page
       x="-0.55341581"
       y="54.041268"
       width="7.9375046"
       height="7.9374997"
       id="page35"
       inkscape:label="edit_button" /><inkscape:page
       x="10.088693"
       y="54.041268"
       width="7.9375"
       height="7.9375001"
       id="page36"
       inkscape:label="edit_button_pressed" /><inkscape:page
       x="20.730801"
       y="54.041267"
       width="7.9375043"
       height="7.9375"
       id="page37"
       margin="0"
       bleed="0"
       inkscape:label="edit_button_hl" /><sodipodi:guide
       position="-0.55341592,-52.411907"
       orientation="1,0"
       id="guide1"
       inkscape:locked="false" /><sodipodi:guide
       position="10.088693,-54.041267"
       orientation="1,0"
       id="guide2"
       inkscape:locked="false" /><sodipodi:guide
       position="20.7308,-54.041268"
       orientation="1,0"
       id="guide3"
       inkscape:locked="false" /><inkscape:page
       x="-67.991623"
       y="107.38184"
       width="16.933334"
       height="16.933327"
       id="page2"
       inkscape:label="create_button"
       margin="0"
       bleed="0" /><inkscape:page
       x="-89.069664"
       y="107.38184"
       width="16.933336"
       height="16.933327"
       id="page38"
       inkscape:label="create_from_selected"
       margin="0"
       bleed="0" /><inkscape:page
       x="-107.59565"
       y="107.38184"
       width="9.5249968"
       height="9.5250025"
       id="page45"
       inkscape:label="x_button"
       margin="0"
       bleed="0" /><inkscape:page
       x="-45.94701"
       y="107.38184"
       width="16.933332"
       height="16.933323"
       id="page50"
       inkscape:label="filter_button"
       margin="0"
       bleed="0" /><inkscape:page
       x="-0.55340119"
       y="125.07514"
       width="8.4666672"
       height="8.4666673"
       id="page57"
       inkscape:label="button_base32" /><inkscape:page
       x="10.088719"
       y="125.07514"
       width="8.4666672"
       height="8.4666673"
       id="page58"
       inkscape:label="button_base32_pressed" /><inkscape:page
       x="20.730809"
       y="125.07514"
       width="8.4666672"
       height="8.4666673"
       id="page59"
       inkscape:label="button_base32_hover" /><inkscape:page
       x="-0.55340119"
       y="140.01738"
       width="4.7624998"
       height="4.7624999"
       id="page65"
       inkscape:label="button_base18" /><inkscape:page
       x="10.088719"
       y="140.01738"
       width="4.7624998"
       height="4.7624999"
       id="page66"
       inkscape:label="button_base18_pressed" /><inkscape:page
       x="20.730809"
       y="140.01738"
       width="4.7624998"
       height="4.7624999"
       id="page67"
       inkscape:label="button_base18_hover" /><inkscape:page
       x="-0.55340119"
       y="149.74828"
       width="7.9375"
       height="7.9375001"
       id="page68"
       inkscape:label="button_base30" /><inkscape:page
       x="10.088719"
       y="149.74828"
       width="7.9375"
       height="7.9375001"
       id="page69"
       inkscape:label="button_base30_pressed" /><inkscape:page
       x="20.730809"
       y="149.74828"
       width="7.9375"
       height="7.9375001"
       id="page70"
       inkscape:label="button_base30_hover" /><inkscape:page
       x="-0.55339197"
       y="165.10557"
       width="16.933334"
       height="16.933334"
       id="page72"
       inkscape:label="button_base64" /><inkscape:page
       x="20.730848"
       y="165.10557"
       width="16.933334"
       height="16.933334"
       id="page73"
       inkscape:label="button_base64_pressed" /><inkscape:page
       x="42.015026"
       y="165.10557"
       width="16.933334"
       height="16.933334"
       id="page74"
       inkscape:label="button_base64_hover" /><sodipodi:guide
       position="-59.524956,-99.444337"
       orientation="0,-1"
       id="guide75"
       inkscape:locked="false" /><inkscape:page
       x="68.948357"
       y="0"
       width="9.5249968"
       height="9.5250025"
       id="page1"
       margin="0"
       bleed="0" /><inkscape:page
       x="-120.82919"
       y="107.38184"
       width="7.9375048"
       height="7.9375005"
       id="page39"
       margin="0"
       bleed="0"
       inkscape:label="attachments" /></sodipodi:namedview><defs
     id="defs1" /><g
     inkscape:label="Layer 1"
     inkscape:groupmode="layer"
     id="layer1"
     transform="translate(-296.41418,-71.143113)"><rect
       style="opacity:0;fill:#808080;stroke-width:1.69836;stroke-linecap:round;stroke-linejoin:round"
       id="rect8"
       width="9.4459114"
       height="18.233477"
       x="273.56906"
       y="102.86549"
       ry="0.25019306"
       inkscape:export-filename="../../src/textures/updown.png"
       inkscape:export-xdpi="96"
       inkscape:export-ydpi="96" /><g
       id="g5"
       inkscape:export-filename="../../src/textures/unfoldButton.png"
       inkscape:export-xdpi="96"
       inkscape:export-ydpi="96"
       transform="translate(-0.55341592)"><rect
         style="opacity:1;fill:#434343;fill-opacity:1;stroke-width:0.238148;stroke-linecap:round;stroke-linejoin:round"
         id="rect1"
         width="7.9375"
         height="7.9375"
         x="296.41418"
         y="104.26369"
         ry="1.6290138" /><path
         id="path2"
         style="opacity:1;fill:#999999;stroke:none;stroke-width:1.67773;stroke-linecap:square;stroke-linejoin:miter;stroke-dasharray:none;stroke-opacity:1"
         d="m 303.70068,107.1082 -3.31775,3.31775 -3.31775,-3.31775 z"
         sodipodi:nodetypes="ccc" /></g><g
       id="g6"
       transform="translate(10.088691)"
       inkscape:export-filename="../../src/textures/unfoldButton_hl.png"
       inkscape:export-xdpi="96"
       inkscape:export-ydpi="96"><rect
         style="opacity:1;fill:#2e2e2e;fill-opacity:1;stroke-width:0.238148;stroke-linecap:round;stroke-linejoin:round"
         id="rect5"
         width="7.9375"
         height="7.9375"
         x="296.41418"
         y="104.26369"
         ry="1.6290138" /><path
         id="path5"
         style="opacity:1;fill:#999999;stroke:none;stroke-width:1.67773;stroke-linecap:square;stroke-linejoin:miter;stroke-dasharray:none;stroke-opacity:1"
         d="m 303.70068,107.1082 -3.31775,3.31775 -3.31775,-3.31775 z"
         sodipodi:nodetypes="ccc" /></g><g
       id="g7"
       transform="translate(20.730805)"
       inkscape:export-filename="../../src/textures/unfoldButton_pressed.png"
       inkscape:export-xdpi="96"
       inkscape:export-ydpi="96"><rect
         style="opacity:1;fill:#636363;fill-opacity:1;stroke-width:0.238148;stroke-linecap:round;stroke-linejoin:round"
         id="rect6"
         width="7.9375"
         height="7.9375"
         x="296.41418"
         y="104.26369"
         ry="1.6290138" /><path
         id="path6"
         style="opacity:1;fill:#999999;stroke:none;stroke-width:1.67773;stroke-linecap:square;stroke-linejoin:miter;stroke-dasharray:none;stroke-opacity:1"
         d="m 303.70068,107.1082 -3.31775,3.31775 -3.31775,-3.31775 z"
         sodipodi:nodetypes="ccc" /></g><g
       id="g3"
       inkscape:export-filename="../../src/textures/unfoldButton.png"
       inkscape:export-xdpi="96"
       inkscape:export-ydpi="96"
       transform="translate(-22.090878,8.2206933)"><rect
         style="opacity:1;fill:#343434;fill-opacity:1;stroke-width:0.238148;stroke-linecap:round;stroke-linejoin:round"
         id="rect2"
         width="7.9375"
         height="7.9375"
         x="296.41418"
         y="104.26369"
         ry="1.6290138" /><path
         id="path3"
         style="opacity:1;fill:#999999;stroke:none;stroke-width:1.67773;stroke-linecap:square;stroke-linejoin:miter;stroke-dasharray:none;stroke-opacity:1"
         d="m 303.70068,107.1082 -3.31775,3.31775 -3.31775,-3.31775 z"
         sodipodi:nodetypes="ccc" /></g><g
       id="g4"
       inkscape:export-filename="../../src/textures/unfoldButton.png"
       inkscape:export-xdpi="96"
       inkscape:export-ydpi="96"
       transform="rotate(180,289.33749,108.28185)"><rect
         style="opacity:1;fill:#343434;fill-opacity:1;stroke-width:0.238148;stroke-linecap:round;stroke-linejoin:round"
         id="rect3"
         width="7.9375"
         height="7.9375"
         x="296.41418"
         y="104.26369"
         ry="1.6290138" /><path
         id="path4"
         style="opacity:1;fill:#999999;stroke:none;stroke-width:1.67773;stroke-linecap:square;stroke-linejoin:miter;stroke-dasharray:none;stroke-opacity:1"
         d="m 303.70068,107.1082 -3.31775,3.31775 -3.31775,-3.31775 z"
         sodipodi:nodetypes="ccc" /></g><g
       id="g18"
       inkscape:export-filename="../../src/textures/edit_button.png"
       inkscape:export-xdpi="96"
       inkscape:export-ydpi="96"
       transform="translate(-0.55341592)"><rect
         style="fill:#999999;fill-opacity:1;stroke-width:0.238148;stroke-linecap:round;stroke-linejoin:round"
         id="rect13"
         width="7.9375"
         height="7.9375"
         x="296.41418"
         y="125.18438"
         ry="1.6290138" /><path
         id="rect9"
         style="fill:#343434;fill-opacity:1;stroke-width:0.238148;stroke-linecap:round;stroke-linejoin:round"
         d="m 298.04302,125.18438 c -0.90248,0 -1.62884,0.72637 -1.62884,1.62884 v 4.6793 c 0,0.90247 0.72636,1.62936 1.62884,1.62936 h 4.67982 c 0.90248,0 1.62884,-0.72689 1.62884,-1.62936 v -3.66128 l -0.8971,0.90021 v 2.23242 c 0,0.6985 -0.56242,1.2609 -1.26091,1.2609 h -3.62148 c -0.69849,0 -1.26091,-0.5624 -1.26091,-1.2609 v -3.622 c 0,-0.6985 0.56242,-1.26091 1.26091,-1.26091 h 2.10271 l 0.88677,-0.89658 z m 4.77645,0.005 -0.40411,0.40928 c 0.68856,0.40701 1.16244,0.96827 1.46606,1.43608 l 0.45217,-0.45372 c -0.10801,-0.75984 -0.73529,-1.34622 -1.51412,-1.39164 z m -0.86868,0.87901 -3.12952,3.1657 c 0.68106,0.40014 1.15238,0.9511 1.45779,1.41542 l 3.14038,-3.15123 c -0.27419,-0.45139 -0.74546,-1.04735 -1.46865,-1.42989 z m -3.59409,3.63596 -0.12351,0.12505 v 1.44126 h 1.42679 l 0.15813,-0.15865 c -0.27798,-0.44972 -0.74772,-1.03291 -1.46141,-1.40766 z" /></g><g
       id="g19"
       transform="translate(10.088693)"
       inkscape:export-filename="../../src/textures/edit_button_pressed.png"
       inkscape:export-xdpi="96"
       inkscape:export-ydpi="96"><rect
         style="fill:#626262;fill-opacity:1;stroke-width:0.238148;stroke-linecap:round;stroke-linejoin:round"
         id="rect18"
         width="7.9375"
         height="7.9375"
         x="296.41418"
         y="125.18438"
         ry="1.6290138" /><path
         id="path18"
         style="fill:#343434;fill-opacity:1;stroke-width:0.238148;stroke-linecap:round;stroke-linejoin:round"
         d="m 298.04302,125.18438 c -0.90248,0 -1.62884,0.72637 -1.62884,1.62884 v 4.6793 c 0,0.90247 0.72636,1.62936 1.62884,1.62936 h 4.67982 c 0.90248,0 1.62884,-0.72689 1.62884,-1.62936 v -3.66128 l -0.8971,0.90021 v 2.23242 c 0,0.6985 -0.56242,1.2609 -1.26091,1.2609 h -3.62148 c -0.69849,0 -1.26091,-0.5624 -1.26091,-1.2609 v -3.622 c 0,-0.6985 0.56242,-1.26091 1.26091,-1.26091 h 2.10271 l 0.88677,-0.89658 z m 4.77645,0.005 -0.40411,0.40928 c 0.68856,0.40701 1.16244,0.96827 1.46606,1.43608 l 0.45217,-0.45372 c -0.10801,-0.75984 -0.73529,-1.34622 -1.51412,-1.39164 z m -0.86868,0.87901 -3.12952,3.1657 c 0.68106,0.40014 1.15238,0.9511 1.45779,1.41542 l 3.14038,-3.15123 c -0.27419,-0.45139 -0.74546,-1.04735 -1.46865,-1.42989 z m -3.59409,3.63596 -0.12351,0.12505 v 1.44126 h 1.42679 l 0.15813,-0.15865 c -0.27798,-0.44972 -0.74772,-1.03291 -1.46141,-1.40766 z" /></g><g
       id="g20"
       transform="translate(20.7308)"
       inkscape:export-filename="../../src/textures/edit_button_hl.png"
       inkscape:export-xdpi="96"
       inkscape:export-ydpi="96"><rect
         style="fill:#999999;fill-opacity:1;stroke-width:0.238148;stroke-linecap:round;stroke-linejoin:round"
         id="rect19"
         width="7.9375"
         height="7.9375"
         x="296.41418"
         y="125.18438"
         ry="1.6290138" /><path
         id="path19"
         style="fill:#636363;fill-opacity:1;stroke-width:0.238148;stroke-linecap:round;stroke-linejoin:round"
         d="m 298.04302,125.18438 c -0.90248,0 -1.62884,0.72637 -1.62884,1.62884 v 4.6793 c 0,0.90247 0.72636,1.62936 1.62884,1.62936 h 4.67982 c 0.90248,0 1.62884,-0.72689 1.62884,-1.62936 v -3.66128 l -0.8971,0.90021 v 2.23242 c 0,0.6985 -0.56242,1.2609 -1.26091,1.2609 h -3.62148 c -0.69849,0 -1.26091,-0.5624 -1.26091,-1.2609 v -3.622 c 0,-0.6985 0.56242,-1.26091 1.26091,-1.26091 h 2.10271 l 0.88677,-0.89658 z m 4.77645,0.005 -0.40411,0.40928 c 0.68856,0.40701 1.16244,0.96827 1.46606,1.43608 l 0.45217,-0.45372 c -0.10801,-0.75984 -0.73529,-1.34622 -1.51412,-1.39164 z m -0.86868,0.87901 -3.12952,3.1657 c 0.68106,0.40014 1.15238,0.9511 1.45779,1.41542 l 3.14038,-3.15123 c -0.27419,-0.45139 -0.74546,-1.04735 -1.46865,-1.42989 z m -3.59409,3.63596 -0.12351,0.12505 v 1.44126 h 1.42679 l 0.15813,-0.15865 c -0.27798,-0.44972 -0.74772,-1.03291 -1.46141,-1.40766 z" /></g><g
       id="g8"
       inkscape:export-filename="../../src/textures/HunfoldButton.png"
       inkscape:export-xdpi="96"
       inkscape:export-ydpi="96"
       transform="rotate(90,309.67568,98.939691)"><rect
         style="opacity:1;fill:#434343;fill-opacity:1;stroke-width:0.238148;stroke-linecap:round;stroke-linejoin:round"
         id="rect4"
         width="7.9375"
         height="7.9375"
         x="296.41418"
         y="104.26369"
         ry="1.6290138" /><path
         id="path7"
         style="opacity:1;fill:#999999;stroke:none;stroke-width:1.67773;stroke-linecap:square;stroke-linejoin:miter;stroke-dasharray:none;stroke-opacity:1"
         d="m 303.70068,107.1082 -3.31775,3.31775 -3.31775,-3.31775 z"
         sodipodi:nodetypes="ccc" /></g><g
       id="g10"
       transform="rotate(90,315.10013,104.49458)"
       inkscape:export-filename="../../src/textures/HunfoldButton_hl.png"
       inkscape:export-xdpi="96"
       inkscape:export-ydpi="96"><rect
         style="opacity:1;fill:#2e2e2e;fill-opacity:1;stroke-width:0.238148;stroke-linecap:round;stroke-linejoin:round"
         id="rect10"
         width="7.9375"
         height="7.9375"
         x="296.41418"
         y="104.26369"
         ry="1.6290138" /><path
         id="path10"
         style="opacity:1;fill:#999999;stroke:none;stroke-width:1.67773;stroke-linecap:square;stroke-linejoin:miter;stroke-dasharray:none;stroke-opacity:1"
         d="m 303.70068,107.1082 -3.31775,3.31775 -3.31775,-3.31775 z"
         sodipodi:nodetypes="ccc" /></g><g
       id="g11"
       transform="rotate(90,320.37744,109.7719)"
       inkscape:export-filename="../../src/textures/HunfoldButton_pressed.png"
       inkscape:export-xdpi="96"
       inkscape:export-ydpi="96"><rect
         style="opacity:1;fill:#636363;fill-opacity:1;stroke-width:0.238148;stroke-linecap:round;stroke-linejoin:round"
         id="rect11"
         width="7.9375"
         height="7.9375"
         x="296.41418"
         y="104.26369"
         ry="1.6290138" /><path
         id="path11"
         style="opacity:1;fill:#999999;stroke:none;stroke-width:1.67773;stroke-linecap:square;stroke-linejoin:miter;stroke-dasharray:none;stroke-opacity:1"
         d="m 303.70068,107.1082 -3.31775,3.31775 -3.31775,-3.31775 z"
         sodipodi:nodetypes="ccc" /></g><g
       id="g23"><rect
         style="fill:#434343;fill-opacity:1;stroke-width:0.238148;stroke-linecap:round;stroke-linejoin:round"
         id="rect7"
         width="7.9375"
         height="7.9375"
         x="71.143112"
         y="-304.35168"
         ry="1.6290138"
         transform="rotate(90)" /><g
         id="g15"
         transform="translate(0.04891278)"><path
           id="path8"
           style="fill:#999999;stroke:none;stroke-width:1.67773;stroke-linecap:square;stroke-linejoin:miter;stroke-dasharray:none;stroke-opacity:1"
           d="m 300.46021,78.429608 -3.31775,-3.31775 3.31775,-3.31775 z"
           sodipodi:nodetypes="ccc" /><path
           id="path15"
           style="fill:#999999;stroke:none;stroke-width:1.67773;stroke-linecap:square;stroke-linejoin:miter;stroke-dasharray:none;stroke-opacity:1"
           d="m 303.19948,78.429608 -3.31775,-3.31775 3.31775,-3.31775 z"
           sodipodi:nodetypes="ccc" /></g></g><g
       id="g24"
       transform="translate(10.642119)"><rect
         style="fill:#636363;fill-opacity:1;stroke-width:0.238148;stroke-linecap:round;stroke-linejoin:round"
         id="rect14"
         width="7.9375"
         height="7.9375"
         x="71.14312"
         y="-314.99377"
         ry="1.6290138"
         transform="rotate(90)" /><g
         id="g22"
         transform="translate(-0.16305179)"><path
           id="path16"
           style="fill:#999999;stroke:none;stroke-width:1.67773;stroke-linecap:square;stroke-linejoin:miter;stroke-dasharray:none;stroke-opacity:1"
           d="m 311.31426,78.42962 -3.31775,-3.31775 3.31775,-3.31775 z"
           sodipodi:nodetypes="ccc" /><path
           id="path17"
           style="fill:#999999;stroke:none;stroke-width:1.67773;stroke-linecap:square;stroke-linejoin:miter;stroke-dasharray:none;stroke-opacity:1"
           d="m 314.05353,78.42962 -3.31775,-3.31775 3.31775,-3.31775 z"
           sodipodi:nodetypes="ccc" /></g></g><g
       id="g25"
       transform="translate(-10.642122)"><rect
         style="fill:#2e2e2e;fill-opacity:1;stroke-width:0.238148;stroke-linecap:round;stroke-linejoin:round"
         id="rect12"
         width="7.9375"
         height="7.9375"
         x="71.143112"
         y="-325.63589"
         ry="1.6290138"
         transform="rotate(90)" /><g
         id="g21"
         transform="translate(21.333123,1.1812012e-5)"><path
           id="path20"
           style="fill:#999999;stroke:none;stroke-width:1.67773;stroke-linecap:square;stroke-linejoin:miter;stroke-dasharray:none;stroke-opacity:1"
           d="m 300.46021,78.429608 -3.31775,-3.31775 3.31775,-3.31775 z"
           sodipodi:nodetypes="ccc" /><path
           id="path21"
           style="fill:#999999;stroke:none;stroke-width:1.67773;stroke-linecap:square;stroke-linejoin:miter;stroke-dasharray:none;stroke-opacity:1"
           d="m 303.19948,78.429608 -3.31775,-3.31775 3.31775,-3.31775 z"
           sodipodi:nodetypes="ccc" /></g></g><g
       id="g74"
       transform="matrix(1.9999999,0,0,1.9999999,-363.29899,-103.65156)"
       style="stroke-width:0.5"><g
         id="g9"
         transform="matrix(1.0666667,0,0,1.0666667,-19.724052,-9.4058838)"
         style="stroke-width:0.46875"><rect
           style="opacity:0;fill:#434343;fill-opacity:1;stroke-width:0.111632;stroke-linecap:round;stroke-linejoin:round"
           id="rect1-7"
           width="7.9375"
           height="7.9375"
           x="295.86078"
           y="141.08826"
           ry="1.6290138" /><path
           id="rect6-1"
           style="fill:#999999;fill-opacity:1;stroke-width:1.43719;stroke-linecap:round;stroke-linejoin:round;paint-order:stroke fill markers"
           d="m 299.69141,142.56982 c -0.26793,0 -0.48372,0.21581 -0.48372,0.48374 v 1.38179 h -1.38181 c -0.26792,0 -0.48338,0.21581 -0.48338,0.48373 v 0.27622 c 0,0.26792 0.21546,0.48337 0.48338,0.48337 h 1.38181 v 1.38179 c 0,0.26793 0.21579,0.48374 0.48372,0.48374 h 0.27621 c 0.26793,0 0.48374,-0.21581 0.48374,-0.48374 v -1.38179 h 1.38144 c 0.26793,0 0.48373,-0.21545 0.48373,-0.48337 v -0.27622 c 0,-0.26792 -0.2158,-0.48373 -0.48373,-0.48373 h -1.38144 v -1.38179 c 0,-0.26793 -0.21581,-0.48374 -0.48374,-0.48374 z" /></g></g><g
       id="g59"
       transform="matrix(1.9999999,0,0,1.9999999,-341.25436,-182.6056)"
       style="stroke-width:0.5"><rect
         style="opacity:0;fill:#4d4d4d;stroke:none;stroke-width:0.264584;stroke-linecap:round;stroke-linejoin:round;stroke-dasharray:none;stroke-opacity:1;paint-order:stroke fill markers"
         id="rect59"
         width="8.4666672"
         height="8.4666662"
         x="295.86078"
         y="180.56528"
         ry="1.2504221" /><path
         style="fill:#999999;fill-opacity:1;stroke:#999999;stroke-width:0.283;stroke-linecap:round;stroke-linejoin:round;stroke-dasharray:none;stroke-dashoffset:11.1239;stroke-opacity:1;paint-order:stroke fill markers"
         d="m 297.30275,181.96236 h 5.58273 l -2.51447,2.51448 v 3.15805 l -0.75268,-0.43456 v -2.73846 z"
         id="path11-3" /></g><g
       id="g79"
       transform="matrix(2.0000001,0,0,2.0000001,-402.90306,-157.78479)"
       style="stroke-width:0.5"><rect
         style="opacity:0;fill:#434343;fill-opacity:1;stroke-width:0.119074;stroke-linecap:round;stroke-linejoin:round"
         id="rect42"
         width="4.7624998"
         height="4.7624998"
         x="295.86078"
         y="168.15486"
         ry="0.97740829" /><path
         id="path42"
         style="fill:#999999;fill-opacity:1;stroke:none;stroke-width:1.53299;stroke-linecap:round;stroke-linejoin:round;paint-order:stroke fill markers"
         d="m 299.59644,169.02245 c -0.15448,-0.15449 -0.40332,-0.15448 -0.55781,0 l -0.79669,0.7967 -0.79672,-0.7967 c -0.15447,-0.15448 -0.40314,-0.15427 -0.55761,1.9e-4 l -0.15927,0.15926 c -0.15446,0.15448 -0.15446,0.40293 2e-5,0.5574 l 0.79671,0.79672 -0.79669,0.7967 c -0.15449,0.15448 -0.1545,0.40332 -2e-5,0.5578 l 0.15925,0.15926 c 0.15449,0.15448 0.40334,0.15448 0.55783,0 l 0.7967,-0.7967 0.7965,0.7965 c 0.15448,0.15448 0.40313,0.15468 0.5576,2e-4 l 0.15926,-0.15926 c 0.15448,-0.15446 0.15449,-0.40332 0,-0.5578 l -0.7965,-0.79651 0.7967,-0.79669 c 0.15448,-0.15449 0.15448,-0.40334 0,-0.55782 z" /></g><rect
       style="fill:#434343;fill-opacity:1;stroke-width:0.238148;stroke-linecap:round;stroke-linejoin:round"
       id="rect53"
       width="8.4666672"
       height="8.4666672"
       x="295.86078"
       y="196.21825"
       ry="1.7376148" /><rect
       style="fill:#2e2e2e;fill-opacity:1;stroke-width:0.238148;stroke-linecap:round;stroke-linejoin:round"
       id="rect54"
       width="8.4666672"
       height="8.4666672"
       x="306.5029"
       y="196.21825"
       ry="1.7376148" /><rect
       style="fill:#636363;fill-opacity:1;stroke-width:0.238148;stroke-linecap:round;stroke-linejoin:round"
       id="rect55"
       width="8.4666672"
       height="8.4666672"
       x="317.14499"
       y="196.21825"
       ry="1.7376148" /><rect
       style="fill:#434343;fill-opacity:1;stroke-width:0.238148;stroke-linecap:round;stroke-linejoin:round"
       id="rect60"
       width="4.7624998"
       height="4.7624998"
       x="295.86078"
       y="211.16049"
       ry="0.97740823" /><rect
       style="fill:#2e2e2e;fill-opacity:1;stroke-width:0.238148;stroke-linecap:round;stroke-linejoin:round"
       id="rect61"
       width="4.7624998"
       height="4.7624998"
       x="306.5029"
       y="211.16049"
       ry="0.97740823" /><rect
       style="fill:#636363;fill-opacity:1;stroke-width:0.238148;stroke-linecap:round;stroke-linejoin:round"
       id="rect62"
       width="4.7624998"
       height="4.7624998"
       x="317.14499"
       y="211.16049"
       ry="0.97740823" /><rect
       style="fill:#434343;fill-opacity:1;stroke-width:0.238148;stroke-linecap:round;stroke-linejoin:round"
       id="rect63"
       width="7.9375"
       height="7.9375"
       x="295.86078"
       y="220.89139"
       ry="1.6290138" /><rect
       style="fill:#2e2e2e;fill-opacity:1;stroke-width:0.238148;stroke-linecap:round;stroke-linejoin:round"
       id="rect64"
       width="7.9375"
       height="7.9375"
       x="306.5029"
       y="220.89139"
       ry="1.6290138" /><rect
       style="fill:#636363;fill-opacity:1;stroke-width:0.238148;stroke-linecap:round;stroke-linejoin:round"
       id="rect65"
       width="7.9375"
       height="7.9375"
       x="317.14499"
       y="220.89139"
       ry="1.6290138" /><g
       id="g72"
       transform="matrix(1.9999999,0,0,1.9999999,-295.86074,-236.24864)"
       style="stroke-width:0.5"><rect
         style="fill:#434343;fill-opacity:1;stroke-width:0.119074;stroke-linecap:round;stroke-linejoin:round"
         id="rect70"
         width="8.4666672"
         height="8.4666672"
         x="295.86078"
         y="236.24867"
         ry="1.7376148" /><rect
         style="fill:#2e2e2e;fill-opacity:1;stroke-width:0.119074;stroke-linecap:round;stroke-linejoin:round"
         id="rect71"
         width="8.4666672"
         height="8.4666672"
         x="306.5029"
         y="236.24867"
         ry="1.7376148" /><rect
         style="fill:#636363;fill-opacity:1;stroke-width:0.119074;stroke-linecap:round;stroke-linejoin:round"
         id="rect72"
         width="8.4666672"
         height="8.4666672"
         x="317.14499"
         y="236.24867"
         ry="1.7376148" /></g><g
       id="g78"
       transform="translate(2.662297,0.09783459)"><g
         id="g75"
         transform="matrix(2.0666666,0,0,2.0666666,-407.0456,-141.47373)"
         style="stroke-width:0.483871"><path
           id="path22"
           style="fill:#999999;fill-opacity:1;stroke-width:1.48354;stroke-linecap:round;stroke-linejoin:round;paint-order:stroke fill markers"
           d="m 299.9468,156.2345 c -0.2858,0 -0.51597,0.2302 -0.51597,0.51599 v 1.47391 h -1.47393 c -0.28578,0 -0.51561,0.2302 -0.51561,0.51598 v 0.29464 c 0,0.28578 0.22983,0.51559 0.51561,0.51559 h 1.47393 v 1.47391 c 0,0.28579 0.23017,0.51599 0.51597,0.51599 h 0.29462 c 0.28579,0 0.51599,-0.2302 0.51599,-0.51599 v -1.47391 h 1.47353 c 0.2858,0 0.51598,-0.22981 0.51598,-0.51559 v -0.29464 c 0,-0.28578 -0.23018,-0.51598 -0.51598,-0.51598 h -1.47353 v -1.47391 c 0,-0.28579 -0.2302,-0.51599 -0.51599,-0.51599 z" /><rect
           style="fill:none;fill-opacity:1;stroke:#999999;stroke-width:0.512097;stroke-linecap:round;stroke-linejoin:round;stroke-dasharray:none;stroke-opacity:1"
           id="rect28"
           width="7.6814518"
           height="7.6814518"
           x="296.25339"
           y="155.04678"
           ry="1.3787022" /></g><g
         id="g77"
         transform="matrix(1.9999999,0,0,1.9999999,-387.03933,-103.7494)"
         style="stroke-width:0.5"><g
           id="g76"
           transform="matrix(1.0666667,0,0,1.0666667,-19.724052,-9.4058838)"
           style="stroke-width:0.46875"><rect
             style="opacity:0;fill:#434343;fill-opacity:1;stroke-width:0.111632;stroke-linecap:round;stroke-linejoin:round"
             id="rect75"
             width="7.9375"
             height="7.9375"
             x="295.86078"
             y="141.08826"
             ry="1.6290138" /></g></g></g><path
       style="fill:#999999;fill-opacity:1;stroke:none;stroke-width:0.0288555;stroke-linecap:round;stroke-linejoin:round;paint-order:stroke fill markers"
       d="m 177.99903,185.83391 c -0.007,-0.004 -0.0419,-0.01 -0.0774,-0.0133 -0.0989,-0.009 -0.32319,-0.0587 -0.3353,-0.0737 -0.003,-0.004 -0.0468,-0.0217 -0.0986,-0.0417 -0.0518,-0.02 -0.0964,-0.0394 -0.0989,-0.0433 -0.003,-0.004 -0.0355,-0.0233 -0.0733,-0.0433 -0.13834,-0.0733 -0.28625,-0.19281 -0.39965,-0.32296 -0.0328,-0.0377 -0.067,-0.0763 -0.0759,-0.0858 -0.009,-0.009 -0.0308,-0.0404 -0.0486,-0.0688 -0.0179,-0.0284 -0.0353,-0.0535 -0.0387,-0.0558 -0.0146,-0.0102 -0.10357,-0.1833 -0.13266,-0.25792 -0.0175,-0.0449 -0.037,-0.0933 -0.0435,-0.10747 -0.0168,-0.037 -0.0539,-0.21034 -0.0645,-0.30091 -0.0249,-0.2115 -0.0249,-0.21497 1.1e-4,-0.42989 0.0112,-0.0965 0.048,-0.26386 0.0681,-0.30951 0.008,-0.0189 0.0297,-0.0731 0.0478,-0.12036 0.018,-0.0473 0.0352,-0.088 0.0383,-0.0903 0.004,-0.003 0.0223,-0.0352 0.0424,-0.073 0.0202,-0.0378 0.0393,-0.0706 0.0424,-0.073 0.004,-0.003 0.021,-0.0275 0.0399,-0.0558 0.0188,-0.0284 0.0497,-0.0703 0.0688,-0.0932 0.0191,-0.0228 0.86756,-0.87631 1.88561,-1.89653 1.31441,-1.31723 1.86709,-1.86562 1.90652,-1.89173 0.0305,-0.0202 0.0556,-0.0401 0.0556,-0.0444 0,-0.004 0.004,-0.007 0.007,-0.007 0.004,0 0.0464,-0.0211 0.0945,-0.0469 0.0794,-0.0425 0.11692,-0.0569 0.28095,-0.10789 0.14571,-0.0453 0.40272,-0.0448 0.55885,8.1e-4 0.13665,0.0401 0.17597,0.0547 0.25792,0.0957 0.10954,0.0548 0.2654,0.16848 0.32737,0.23866 0.0502,0.0568 0.1175,0.14244 0.12802,0.16278 0.007,0.0136 0.0186,0.0306 0.0258,0.0378 0.0246,0.0246 0.10059,0.19078 0.12507,0.27355 0.0135,0.0455 0.0289,0.11524 0.0344,0.15476 0.005,0.0395 0.0134,0.0787 0.0178,0.0868 0.0102,0.0194 0.0102,0.21724 0,0.23667 -0.004,0.008 -0.0123,0.0473 -0.0178,0.0868 -0.0143,0.10362 -0.0524,0.22433 -0.1034,0.32791 -0.0245,0.0496 -0.0474,0.0922 -0.0509,0.0946 -0.004,0.003 -0.0201,0.0256 -0.0368,0.0516 -0.0167,0.026 -0.0451,0.0647 -0.0631,0.086 -0.0781,0.0918 -2.85957,2.86889 -2.91547,2.91083 -0.0881,0.0661 -0.17396,0.1063 -0.29539,0.13828 -0.0578,0.0152 -0.2447,0.0175 -0.30521,0.004 -0.0725,-0.0166 -0.24611,-0.0856 -0.26223,-0.1043 -0.003,-0.003 -0.0256,-0.0206 -0.0516,-0.0397 -0.0943,-0.0692 -0.18808,-0.18299 -0.23218,-0.28168 -0.0516,-0.11544 -0.0701,-0.18562 -0.075,-0.28492 -0.005,-0.0934 0.007,-0.22283 0.0239,-0.25195 0.004,-0.007 0.0201,-0.0468 0.0351,-0.087 0.0151,-0.0402 0.047,-0.10209 0.0711,-0.13755 0.0328,-0.0486 0.33992,-0.36137 1.23814,-1.26175 0.65692,-0.6585 1.21214,-1.20867 1.23383,-1.22259 0.0637,-0.0409 0.20554,-0.074 0.22664,-0.0529 0.005,0.005 0.017,0.009 0.0261,0.009 0.009,0 0.0402,0.0102 0.0692,0.0226 0.0682,0.0294 0.14341,0.1063 0.17037,0.17422 0.0278,0.0701 0.0274,0.18291 -8.2e-4,0.25761 -0.0204,0.0539 -0.039,0.0729 -1.21866,1.25356 -0.71775,0.71831 -1.20003,1.2073 -1.20321,1.21993 -0.0162,0.065 0.0297,0.12416 0.0964,0.12416 h 0.0382 l 1.40331,-1.40442 c 0.77182,-0.77243 1.41491,-1.4195 1.42909,-1.43795 0.0467,-0.0607 0.0757,-0.13139 0.0908,-0.22079 0.004,-0.0247 0.01,-0.0578 0.0132,-0.0737 0.004,-0.0158 0.002,-0.043 -0.004,-0.0602 -0.005,-0.0172 -0.0133,-0.056 -0.0188,-0.0861 -0.0201,-0.11081 -0.0694,-0.18991 -0.17894,-0.28749 -0.0475,-0.0423 -0.17998,-0.0982 -0.25781,-0.1089 -0.0803,-0.0109 -0.18977,-8.2e-4 -0.24103,0.0224 -0.15578,0.0704 0.0134,-0.0921 -1.97566,1.89761 -1.00766,1.00794 -1.84335,1.84994 -1.85708,1.87108 -0.0138,0.0212 -0.0307,0.0444 -0.0379,0.0517 -0.0278,0.0287 -0.10438,0.19846 -0.12623,0.27978 -0.0214,0.0794 -0.023,0.0983 -0.023,0.25765 0,0.15849 0.002,0.17852 0.0225,0.25579 0.0951,0.35364 0.39886,0.631 0.75003,0.6848 0.17382,0.0266 0.20258,0.0292 0.22234,0.0196 0.01,-0.005 0.0475,-0.011 0.0829,-0.0138 0.0355,-0.003 0.10123,-0.015 0.14615,-0.0274 0.0829,-0.0229 0.24898,-0.10258 0.27762,-0.13324 0.008,-0.009 0.02,-0.0164 0.0257,-0.0164 0.005,0 0.77249,-0.76175 1.70413,-1.69276 1.64623,-1.64513 1.69534,-1.6933 1.74492,-1.71139 0.14035,-0.0513 0.28059,-0.0199 0.37558,0.084 0.0594,0.065 0.0786,0.1125 0.0831,0.20599 0.005,0.0972 -0.0148,0.16078 -0.0702,0.22877 -0.0469,0.0574 -3.30751,3.3177 -3.36298,3.36257 -0.0234,0.0189 -0.0484,0.0396 -0.0556,0.0459 -0.033,0.0293 -0.12931,0.0928 -0.18846,0.12447 -0.036,0.0192 -0.0673,0.0376 -0.0695,0.0408 -0.003,0.004 -0.0411,0.0203 -0.0859,0.0381 -0.0449,0.0178 -0.0972,0.0392 -0.11611,0.0477 -0.0478,0.0214 -0.16578,0.0489 -0.27638,0.0644 -0.0513,0.007 -0.10977,0.0169 -0.12994,0.0214 -0.0446,0.0102 -0.24203,0.0108 -0.25995,5.6e-4 z"
       id="path40" /></g></svg>
