<?xml version="1.0" encoding="UTF-8" standalone="no"?>
<!-- Created with Inkscape (http://www.inkscape.org/) -->

<svg
   width="51.513405mm"
   height="30.256386mm"
   viewBox="0 0 51.513405 30.256386"
   version="1.1"
   id="svg1"
   xml:space="preserve"
   inkscape:version="1.3.2 (091e20ef0f, 2023-11-25, custom)"
   sodipodi:docname="icons.svg"
   xmlns:inkscape="http://www.inkscape.org/namespaces/inkscape"
   xmlns:sodipodi="http://sodipodi.sourceforge.net/DTD/sodipodi-0.dtd"
   xmlns="http://www.w3.org/2000/svg"
   xmlns:svg="http://www.w3.org/2000/svg"><sodipodi:namedview
     id="namedview1"
     pagecolor="#ffffff"
     bordercolor="#000000"
     borderopacity="0.25"
     inkscape:showpageshadow="2"
     inkscape:pageopacity="0.0"
     inkscape:pagecheckerboard="0"
     inkscape:deskcolor="#d1d1d1"
     inkscape:document-units="mm"
     inkscape:zoom="2.0283688"
     inkscape:cx="103.53147"
     inkscape:cy="75.183568"
     inkscape:window-width="1920"
     inkscape:window-height="1003"
     inkscape:window-x="0"
     inkscape:window-y="0"
     inkscape:window-maximized="1"
     inkscape:current-layer="layer1" /><defs
     id="defs1" /><g
     inkscape:label="Layer 1"
     inkscape:groupmode="layer"
     id="layer1"
     transform="translate(-274.1225,-102.86549)"><rect
       style="opacity:0;fill:#808080;stroke-width:1.69836;stroke-linecap:round;stroke-linejoin:round"
       id="rect8"
       width="9.4459114"
       height="18.233477"
       x="274.1225"
       y="102.86549"
       ry="0.25019306"
       inkscape:export-filename="../../src/textures/updown.png"
       inkscape:export-xdpi="96"
       inkscape:export-ydpi="96" /><g
       id="g5"
       inkscape:export-filename="../../src/textures/unfoldButton.png"
       inkscape:export-xdpi="96"
       inkscape:export-ydpi="96"><rect
         style="opacity:1;fill:#434343;fill-opacity:1;stroke-width:0.238148;stroke-linecap:round;stroke-linejoin:round"
         id="rect1"
         width="7.9375"
         height="7.9375"
         x="296.41418"
         y="104.26369"
         ry="1.6290138" /><path
         id="path2"
         style="opacity:1;fill:#999999;stroke:none;stroke-width:1.67773;stroke-linecap:square;stroke-linejoin:miter;stroke-dasharray:none;stroke-opacity:1"
         d="m 303.70068,107.1082 -3.31775,3.31775 -3.31775,-3.31775 z"
         sodipodi:nodetypes="ccc" /></g><g
       id="g6"
       transform="translate(21.284214)"
       inkscape:export-filename="../../src/textures/unfoldButton_hl.png"
       inkscape:export-xdpi="96"
       inkscape:export-ydpi="96"><rect
         style="opacity:1;fill:#2e2e2e;fill-opacity:1;stroke-width:0.238148;stroke-linecap:round;stroke-linejoin:round"
         id="rect5"
         width="7.9375"
         height="7.9375"
         x="296.41418"
         y="104.26369"
         ry="1.6290138" /><path
         id="path5"
         style="opacity:1;fill:#999999;stroke:none;stroke-width:1.67773;stroke-linecap:square;stroke-linejoin:miter;stroke-dasharray:none;stroke-opacity:1"
         d="m 303.70068,107.1082 -3.31775,3.31775 -3.31775,-3.31775 z"
         sodipodi:nodetypes="ccc" /></g><g
       id="g7"
       transform="translate(10.642107)"
       inkscape:export-filename="../../src/textures/unfoldButton_pressed.png"
       inkscape:export-xdpi="96"
       inkscape:export-ydpi="96"><rect
         style="opacity:1;fill:#636363;fill-opacity:1;stroke-width:0.238148;stroke-linecap:round;stroke-linejoin:round"
         id="rect6"
         width="7.9375"
         height="7.9375"
         x="296.41418"
         y="104.26369"
         ry="1.6290138" /><path
         id="path6"
         style="opacity:1;fill:#999999;stroke:none;stroke-width:1.67773;stroke-linecap:square;stroke-linejoin:miter;stroke-dasharray:none;stroke-opacity:1"
         d="m 303.70068,107.1082 -3.31775,3.31775 -3.31775,-3.31775 z"
         sodipodi:nodetypes="ccc" /></g><g
       id="g3"
       inkscape:export-filename="../../src/textures/unfoldButton.png"
       inkscape:export-xdpi="96"
       inkscape:export-ydpi="96"
       transform="translate(-21.537462,8.2206933)"><rect
         style="opacity:1;fill:#343434;fill-opacity:1;stroke-width:0.238148;stroke-linecap:round;stroke-linejoin:round"
         id="rect2"
         width="7.9375"
         height="7.9375"
         x="296.41418"
         y="104.26369"
         ry="1.6290138" /><path
         id="path3"
         style="opacity:1;fill:#999999;stroke:none;stroke-width:1.67773;stroke-linecap:square;stroke-linejoin:miter;stroke-dasharray:none;stroke-opacity:1"
         d="m 303.70068,107.1082 -3.31775,3.31775 -3.31775,-3.31775 z"
         sodipodi:nodetypes="ccc" /></g><g
       id="g4"
       inkscape:export-filename="../../src/textures/unfoldButton.png"
       inkscape:export-xdpi="96"
       inkscape:export-ydpi="96"
       transform="rotate(180,289.6142,108.28185)"><rect
         style="opacity:1;fill:#343434;fill-opacity:1;stroke-width:0.238148;stroke-linecap:round;stroke-linejoin:round"
         id="rect3"
         width="7.9375"
         height="7.9375"
         x="296.41418"
         y="104.26369"
         ry="1.6290138" /><path
         id="path4"
         style="opacity:1;fill:#999999;stroke:none;stroke-width:1.67773;stroke-linecap:square;stroke-linejoin:miter;stroke-dasharray:none;stroke-opacity:1"
         d="m 303.70068,107.1082 -3.31775,3.31775 -3.31775,-3.31775 z"
         sodipodi:nodetypes="ccc" /></g><g
       id="g18"
       inkscape:export-filename="../../src/textures/edit_button.png"
       inkscape:export-xdpi="96"
       inkscape:export-ydpi="96"><rect
         style="fill:#999999;fill-opacity:1;stroke-width:0.238148;stroke-linecap:round;stroke-linejoin:round"
         id="rect13"
         width="7.9375"
         height="7.9375"
         x="296.41418"
         y="125.18438"
         ry="1.6290138" /><path
         id="rect9"
         style="fill:#343434;fill-opacity:1;stroke-width:0.238148;stroke-linecap:round;stroke-linejoin:round"
         d="m 298.04302,125.18438 c -0.90248,0 -1.62884,0.72637 -1.62884,1.62884 v 4.6793 c 0,0.90247 0.72636,1.62936 1.62884,1.62936 h 4.67982 c 0.90248,0 1.62884,-0.72689 1.62884,-1.62936 v -3.66128 l -0.8971,0.90021 v 2.23242 c 0,0.6985 -0.56242,1.2609 -1.26091,1.2609 h -3.62148 c -0.69849,0 -1.26091,-0.5624 -1.26091,-1.2609 v -3.622 c 0,-0.6985 0.56242,-1.26091 1.26091,-1.26091 h 2.10271 l 0.88677,-0.89658 z m 4.77645,0.005 -0.40411,0.40928 c 0.68856,0.40701 1.16244,0.96827 1.46606,1.43608 l 0.45217,-0.45372 c -0.10801,-0.75984 -0.73529,-1.34622 -1.51412,-1.39164 z m -0.86868,0.87901 -3.12952,3.1657 c 0.68106,0.40014 1.15238,0.9511 1.45779,1.41542 l 3.14038,-3.15123 c -0.27419,-0.45139 -0.74546,-1.04735 -1.46865,-1.42989 z m -3.59409,3.63596 -0.12351,0.12505 v 1.44126 h 1.42679 l 0.15813,-0.15865 c -0.27798,-0.44972 -0.74772,-1.03291 -1.46141,-1.40766 z" /></g><g
       id="g19"
       transform="translate(10.642109)"
       inkscape:export-filename="../../src/textures/edit_button_pressed.png"
       inkscape:export-xdpi="96"
       inkscape:export-ydpi="96"><rect
         style="fill:#626262;fill-opacity:1;stroke-width:0.238148;stroke-linecap:round;stroke-linejoin:round"
         id="rect18"
         width="7.9375"
         height="7.9375"
         x="296.41418"
         y="125.18438"
         ry="1.6290138" /><path
         id="path18"
         style="fill:#343434;fill-opacity:1;stroke-width:0.238148;stroke-linecap:round;stroke-linejoin:round"
         d="m 298.04302,125.18438 c -0.90248,0 -1.62884,0.72637 -1.62884,1.62884 v 4.6793 c 0,0.90247 0.72636,1.62936 1.62884,1.62936 h 4.67982 c 0.90248,0 1.62884,-0.72689 1.62884,-1.62936 v -3.66128 l -0.8971,0.90021 v 2.23242 c 0,0.6985 -0.56242,1.2609 -1.26091,1.2609 h -3.62148 c -0.69849,0 -1.26091,-0.5624 -1.26091,-1.2609 v -3.622 c 0,-0.6985 0.56242,-1.26091 1.26091,-1.26091 h 2.10271 l 0.88677,-0.89658 z m 4.77645,0.005 -0.40411,0.40928 c 0.68856,0.40701 1.16244,0.96827 1.46606,1.43608 l 0.45217,-0.45372 c -0.10801,-0.75984 -0.73529,-1.34622 -1.51412,-1.39164 z m -0.86868,0.87901 -3.12952,3.1657 c 0.68106,0.40014 1.15238,0.9511 1.45779,1.41542 l 3.14038,-3.15123 c -0.27419,-0.45139 -0.74546,-1.04735 -1.46865,-1.42989 z m -3.59409,3.63596 -0.12351,0.12505 v 1.44126 h 1.42679 l 0.15813,-0.15865 c -0.27798,-0.44972 -0.74772,-1.03291 -1.46141,-1.40766 z" /></g><g
       id="g20"
       transform="translate(21.284216)"
       inkscape:export-filename="../../src/textures/edit_button_hl.png"
       inkscape:export-xdpi="96"
       inkscape:export-ydpi="96"><rect
         style="fill:#999999;fill-opacity:1;stroke-width:0.238148;stroke-linecap:round;stroke-linejoin:round"
         id="rect19"
         width="7.9375"
         height="7.9375"
         x="296.41418"
         y="125.18438"
         ry="1.6290138" /><path
         id="path19"
         style="fill:#636363;fill-opacity:1;stroke-width:0.238148;stroke-linecap:round;stroke-linejoin:round"
         d="m 298.04302,125.18438 c -0.90248,0 -1.62884,0.72637 -1.62884,1.62884 v 4.6793 c 0,0.90247 0.72636,1.62936 1.62884,1.62936 h 4.67982 c 0.90248,0 1.62884,-0.72689 1.62884,-1.62936 v -3.66128 l -0.8971,0.90021 v 2.23242 c 0,0.6985 -0.56242,1.2609 -1.26091,1.2609 h -3.62148 c -0.69849,0 -1.26091,-0.5624 -1.26091,-1.2609 v -3.622 c 0,-0.6985 0.56242,-1.26091 1.26091,-1.26091 h 2.10271 l 0.88677,-0.89658 z m 4.77645,0.005 -0.40411,0.40928 c 0.68856,0.40701 1.16244,0.96827 1.46606,1.43608 l 0.45217,-0.45372 c -0.10801,-0.75984 -0.73529,-1.34622 -1.51412,-1.39164 z m -0.86868,0.87901 -3.12952,3.1657 c 0.68106,0.40014 1.15238,0.9511 1.45779,1.41542 l 3.14038,-3.15123 c -0.27419,-0.45139 -0.74546,-1.04735 -1.46865,-1.42989 z m -3.59409,3.63596 -0.12351,0.12505 v 1.44126 h 1.42679 l 0.15813,-0.15865 c -0.27798,-0.44972 -0.74772,-1.03291 -1.46141,-1.40766 z" /></g></g></svg>
