<?xml version="1.0" encoding="UTF-8" standalone="no"?>
<!-- Created with Inkscape (http://www.inkscape.org/) -->

<svg
   width="7.9375mm"
   height="7.9375mm"
   viewBox="0 0 7.9375 7.9375001"
   version="1.1"
   id="svg1"
   xml:space="preserve"
   inkscape:version="1.4.1 (93de688d07, 2025-03-30)"
   sodipodi:docname="icons.svg"
   inkscape:export-batch-path="../../src/textures"
   inkscape:export-batch-name=""
   xmlns:inkscape="http://www.inkscape.org/namespaces/inkscape"
   xmlns:sodipodi="http://sodipodi.sourceforge.net/DTD/sodipodi-0.dtd"
   xmlns="http://www.w3.org/2000/svg"
   xmlns:svg="http://www.w3.org/2000/svg"><sodipodi:namedview
     id="namedview1"
     pagecolor="#ffffff"
     bordercolor="#000000"
     borderopacity="0.25"
     inkscape:showpageshadow="2"
     inkscape:pageopacity="0.0"
     inkscape:pagecheckerboard="0"
     inkscape:deskcolor="#d1d1d1"
     inkscape:document-units="mm"
     inkscape:zoom="2.0283688"
     inkscape:cx="97.615383"
     inkscape:cy="110.92657"
     inkscape:window-width="1920"
     inkscape:window-height="1003"
     inkscape:window-x="1920"
     inkscape:window-y="0"
     inkscape:window-maximized="1"
     inkscape:current-layer="layer1"
     showgrid="false"><inkscape:page
       x="0"
       y="0"
       width="7.9375"
       height="7.9375"
       id="page26"
       inkscape:label="BeginingButton_norm"
       margin="0"
       bleed="0" /><inkscape:page
       x="10.64209"
       y="7.6293945e-06"
       width="7.9375"
       height="7.9375"
       id="page27"
       inkscape:label="BeginingButton_hover"
       margin="0"
       bleed="0" /><inkscape:page
       x="21.28421"
       y="0"
       width="7.9375"
       height="7.9375"
       id="page28"
       inkscape:label="BeginingButton_pressed"
       margin="0"
       bleed="0" /><inkscape:page
       x="3.9784841e-06"
       y="14.535083"
       width="7.9375"
       height="7.9375"
       id="page29"
       margin="0"
       bleed="0"
       inkscape:label="HunfoldButton" /><inkscape:page
       x="10.979343"
       y="14.665522"
       width="7.9375"
       height="7.9375001"
       id="page30"
       inkscape:label="HunfoldButton_hl" /><inkscape:page
       x="21.533973"
       y="14.665532"
       width="7.9375"
       height="7.9375001"
       id="page31"
       inkscape:label="HunfoldButton_pressed" /><inkscape:page
       x="-0.55341124"
       y="33.120575"
       width="7.9375"
       height="7.9375001"
       id="page32"
       inkscape:label="unfoldButton" /><inkscape:page
       x="10.088696"
       y="33.120575"
       width="7.9375"
       height="7.9375001"
       id="page33"
       inkscape:label="unfoldButton_hl" /><inkscape:page
       x="20.73081"
       y="33.120575"
       width="7.9375"
       height="7.9375001"
       id="page34"
       inkscape:label="unfoldButton_pressed" /><inkscape:page
       x="-0.55341581"
       y="54.041268"
       width="7.9375046"
       height="7.9374997"
       id="page35"
       inkscape:label="edit_button" /><inkscape:page
       x="10.088693"
       y="54.041268"
       width="7.9375"
       height="7.9375001"
       id="page36"
       inkscape:label="edit_button_pressed" /><inkscape:page
       x="20.730801"
       y="54.041267"
       width="7.9375043"
       height="7.9375"
       id="page37"
       margin="0"
       bleed="0"
       inkscape:label="edit_button_hl" /></sodipodi:namedview><defs
     id="defs1" /><g
     inkscape:label="Layer 1"
     inkscape:groupmode="layer"
     id="layer1"
     transform="translate(-296.41418,-71.143113)"><rect
       style="opacity:0;fill:#808080;stroke-width:1.69836;stroke-linecap:round;stroke-linejoin:round"
       id="rect8"
       width="9.4459114"
       height="18.233477"
       x="273.56906"
       y="102.86549"
       ry="0.25019306"
       inkscape:export-filename="../../src/textures/updown.png"
       inkscape:export-xdpi="96"
       inkscape:export-ydpi="96" /><g
       id="g5"
       inkscape:export-filename="../../src/textures/unfoldButton.png"
       inkscape:export-xdpi="96"
       inkscape:export-ydpi="96"
       transform="translate(-0.55341592)"><rect
         style="opacity:1;fill:#434343;fill-opacity:1;stroke-width:0.238148;stroke-linecap:round;stroke-linejoin:round"
         id="rect1"
         width="7.9375"
         height="7.9375"
         x="296.41418"
         y="104.26369"
         ry="1.6290138" /><path
         id="path2"
         style="opacity:1;fill:#999999;stroke:none;stroke-width:1.67773;stroke-linecap:square;stroke-linejoin:miter;stroke-dasharray:none;stroke-opacity:1"
         d="m 303.70068,107.1082 -3.31775,3.31775 -3.31775,-3.31775 z"
         sodipodi:nodetypes="ccc" /></g><g
       id="g6"
       transform="translate(10.088691)"
       inkscape:export-filename="../../src/textures/unfoldButton_hl.png"
       inkscape:export-xdpi="96"
       inkscape:export-ydpi="96"><rect
         style="opacity:1;fill:#2e2e2e;fill-opacity:1;stroke-width:0.238148;stroke-linecap:round;stroke-linejoin:round"
         id="rect5"
         width="7.9375"
         height="7.9375"
         x="296.41418"
         y="104.26369"
         ry="1.6290138" /><path
         id="path5"
         style="opacity:1;fill:#999999;stroke:none;stroke-width:1.67773;stroke-linecap:square;stroke-linejoin:miter;stroke-dasharray:none;stroke-opacity:1"
         d="m 303.70068,107.1082 -3.31775,3.31775 -3.31775,-3.31775 z"
         sodipodi:nodetypes="ccc" /></g><g
       id="g7"
       transform="translate(20.730805)"
       inkscape:export-filename="../../src/textures/unfoldButton_pressed.png"
       inkscape:export-xdpi="96"
       inkscape:export-ydpi="96"><rect
         style="opacity:1;fill:#636363;fill-opacity:1;stroke-width:0.238148;stroke-linecap:round;stroke-linejoin:round"
         id="rect6"
         width="7.9375"
         height="7.9375"
         x="296.41418"
         y="104.26369"
         ry="1.6290138" /><path
         id="path6"
         style="opacity:1;fill:#999999;stroke:none;stroke-width:1.67773;stroke-linecap:square;stroke-linejoin:miter;stroke-dasharray:none;stroke-opacity:1"
         d="m 303.70068,107.1082 -3.31775,3.31775 -3.31775,-3.31775 z"
         sodipodi:nodetypes="ccc" /></g><g
       id="g3"
       inkscape:export-filename="../../src/textures/unfoldButton.png"
       inkscape:export-xdpi="96"
       inkscape:export-ydpi="96"
       transform="translate(-22.090878,8.2206933)"><rect
         style="opacity:1;fill:#343434;fill-opacity:1;stroke-width:0.238148;stroke-linecap:round;stroke-linejoin:round"
         id="rect2"
         width="7.9375"
         height="7.9375"
         x="296.41418"
         y="104.26369"
         ry="1.6290138" /><path
         id="path3"
         style="opacity:1;fill:#999999;stroke:none;stroke-width:1.67773;stroke-linecap:square;stroke-linejoin:miter;stroke-dasharray:none;stroke-opacity:1"
         d="m 303.70068,107.1082 -3.31775,3.31775 -3.31775,-3.31775 z"
         sodipodi:nodetypes="ccc" /></g><g
       id="g4"
       inkscape:export-filename="../../src/textures/unfoldButton.png"
       inkscape:export-xdpi="96"
       inkscape:export-ydpi="96"
       transform="rotate(180,289.33749,108.28185)"><rect
         style="opacity:1;fill:#343434;fill-opacity:1;stroke-width:0.238148;stroke-linecap:round;stroke-linejoin:round"
         id="rect3"
         width="7.9375"
         height="7.9375"
         x="296.41418"
         y="104.26369"
         ry="1.6290138" /><path
         id="path4"
         style="opacity:1;fill:#999999;stroke:none;stroke-width:1.67773;stroke-linecap:square;stroke-linejoin:miter;stroke-dasharray:none;stroke-opacity:1"
         d="m 303.70068,107.1082 -3.31775,3.31775 -3.31775,-3.31775 z"
         sodipodi:nodetypes="ccc" /></g><g
       id="g18"
       inkscape:export-filename="../../src/textures/edit_button.png"
       inkscape:export-xdpi="96"
       inkscape:export-ydpi="96"
       transform="translate(-0.55341592)"><rect
         style="fill:#999999;fill-opacity:1;stroke-width:0.238148;stroke-linecap:round;stroke-linejoin:round"
         id="rect13"
         width="7.9375"
         height="7.9375"
         x="296.41418"
         y="125.18438"
         ry="1.6290138" /><path
         id="rect9"
         style="fill:#343434;fill-opacity:1;stroke-width:0.238148;stroke-linecap:round;stroke-linejoin:round"
         d="m 298.04302,125.18438 c -0.90248,0 -1.62884,0.72637 -1.62884,1.62884 v 4.6793 c 0,0.90247 0.72636,1.62936 1.62884,1.62936 h 4.67982 c 0.90248,0 1.62884,-0.72689 1.62884,-1.62936 v -3.66128 l -0.8971,0.90021 v 2.23242 c 0,0.6985 -0.56242,1.2609 -1.26091,1.2609 h -3.62148 c -0.69849,0 -1.26091,-0.5624 -1.26091,-1.2609 v -3.622 c 0,-0.6985 0.56242,-1.26091 1.26091,-1.26091 h 2.10271 l 0.88677,-0.89658 z m 4.77645,0.005 -0.40411,0.40928 c 0.68856,0.40701 1.16244,0.96827 1.46606,1.43608 l 0.45217,-0.45372 c -0.10801,-0.75984 -0.73529,-1.34622 -1.51412,-1.39164 z m -0.86868,0.87901 -3.12952,3.1657 c 0.68106,0.40014 1.15238,0.9511 1.45779,1.41542 l 3.14038,-3.15123 c -0.27419,-0.45139 -0.74546,-1.04735 -1.46865,-1.42989 z m -3.59409,3.63596 -0.12351,0.12505 v 1.44126 h 1.42679 l 0.15813,-0.15865 c -0.27798,-0.44972 -0.74772,-1.03291 -1.46141,-1.40766 z" /></g><g
       id="g19"
       transform="translate(10.088693)"
       inkscape:export-filename="../../src/textures/edit_button_pressed.png"
       inkscape:export-xdpi="96"
       inkscape:export-ydpi="96"><rect
         style="fill:#626262;fill-opacity:1;stroke-width:0.238148;stroke-linecap:round;stroke-linejoin:round"
         id="rect18"
         width="7.9375"
         height="7.9375"
         x="296.41418"
         y="125.18438"
         ry="1.6290138" /><path
         id="path18"
         style="fill:#343434;fill-opacity:1;stroke-width:0.238148;stroke-linecap:round;stroke-linejoin:round"
         d="m 298.04302,125.18438 c -0.90248,0 -1.62884,0.72637 -1.62884,1.62884 v 4.6793 c 0,0.90247 0.72636,1.62936 1.62884,1.62936 h 4.67982 c 0.90248,0 1.62884,-0.72689 1.62884,-1.62936 v -3.66128 l -0.8971,0.90021 v 2.23242 c 0,0.6985 -0.56242,1.2609 -1.26091,1.2609 h -3.62148 c -0.69849,0 -1.26091,-0.5624 -1.26091,-1.2609 v -3.622 c 0,-0.6985 0.56242,-1.26091 1.26091,-1.26091 h 2.10271 l 0.88677,-0.89658 z m 4.77645,0.005 -0.40411,0.40928 c 0.68856,0.40701 1.16244,0.96827 1.46606,1.43608 l 0.45217,-0.45372 c -0.10801,-0.75984 -0.73529,-1.34622 -1.51412,-1.39164 z m -0.86868,0.87901 -3.12952,3.1657 c 0.68106,0.40014 1.15238,0.9511 1.45779,1.41542 l 3.14038,-3.15123 c -0.27419,-0.45139 -0.74546,-1.04735 -1.46865,-1.42989 z m -3.59409,3.63596 -0.12351,0.12505 v 1.44126 h 1.42679 l 0.15813,-0.15865 c -0.27798,-0.44972 -0.74772,-1.03291 -1.46141,-1.40766 z" /></g><g
       id="g20"
       transform="translate(20.7308)"
       inkscape:export-filename="../../src/textures/edit_button_hl.png"
       inkscape:export-xdpi="96"
       inkscape:export-ydpi="96"><rect
         style="fill:#999999;fill-opacity:1;stroke-width:0.238148;stroke-linecap:round;stroke-linejoin:round"
         id="rect19"
         width="7.9375"
         height="7.9375"
         x="296.41418"
         y="125.18438"
         ry="1.6290138" /><path
         id="path19"
         style="fill:#636363;fill-opacity:1;stroke-width:0.238148;stroke-linecap:round;stroke-linejoin:round"
         d="m 298.04302,125.18438 c -0.90248,0 -1.62884,0.72637 -1.62884,1.62884 v 4.6793 c 0,0.90247 0.72636,1.62936 1.62884,1.62936 h 4.67982 c 0.90248,0 1.62884,-0.72689 1.62884,-1.62936 v -3.66128 l -0.8971,0.90021 v 2.23242 c 0,0.6985 -0.56242,1.2609 -1.26091,1.2609 h -3.62148 c -0.69849,0 -1.26091,-0.5624 -1.26091,-1.2609 v -3.622 c 0,-0.6985 0.56242,-1.26091 1.26091,-1.26091 h 2.10271 l 0.88677,-0.89658 z m 4.77645,0.005 -0.40411,0.40928 c 0.68856,0.40701 1.16244,0.96827 1.46606,1.43608 l 0.45217,-0.45372 c -0.10801,-0.75984 -0.73529,-1.34622 -1.51412,-1.39164 z m -0.86868,0.87901 -3.12952,3.1657 c 0.68106,0.40014 1.15238,0.9511 1.45779,1.41542 l 3.14038,-3.15123 c -0.27419,-0.45139 -0.74546,-1.04735 -1.46865,-1.42989 z m -3.59409,3.63596 -0.12351,0.12505 v 1.44126 h 1.42679 l 0.15813,-0.15865 c -0.27798,-0.44972 -0.74772,-1.03291 -1.46141,-1.40766 z" /></g><g
       id="g8"
       inkscape:export-filename="../../src/textures/HunfoldButton.png"
       inkscape:export-xdpi="96"
       inkscape:export-ydpi="96"
       transform="rotate(90,309.67568,98.939691)"><rect
         style="opacity:1;fill:#434343;fill-opacity:1;stroke-width:0.238148;stroke-linecap:round;stroke-linejoin:round"
         id="rect4"
         width="7.9375"
         height="7.9375"
         x="296.41418"
         y="104.26369"
         ry="1.6290138" /><path
         id="path7"
         style="opacity:1;fill:#999999;stroke:none;stroke-width:1.67773;stroke-linecap:square;stroke-linejoin:miter;stroke-dasharray:none;stroke-opacity:1"
         d="m 303.70068,107.1082 -3.31775,3.31775 -3.31775,-3.31775 z"
         sodipodi:nodetypes="ccc" /></g><g
       id="g10"
       transform="rotate(90,315.10013,104.49458)"
       inkscape:export-filename="../../src/textures/HunfoldButton_hl.png"
       inkscape:export-xdpi="96"
       inkscape:export-ydpi="96"><rect
         style="opacity:1;fill:#2e2e2e;fill-opacity:1;stroke-width:0.238148;stroke-linecap:round;stroke-linejoin:round"
         id="rect10"
         width="7.9375"
         height="7.9375"
         x="296.41418"
         y="104.26369"
         ry="1.6290138" /><path
         id="path10"
         style="opacity:1;fill:#999999;stroke:none;stroke-width:1.67773;stroke-linecap:square;stroke-linejoin:miter;stroke-dasharray:none;stroke-opacity:1"
         d="m 303.70068,107.1082 -3.31775,3.31775 -3.31775,-3.31775 z"
         sodipodi:nodetypes="ccc" /></g><g
       id="g11"
       transform="rotate(90,320.37744,109.7719)"
       inkscape:export-filename="../../src/textures/HunfoldButton_pressed.png"
       inkscape:export-xdpi="96"
       inkscape:export-ydpi="96"><rect
         style="opacity:1;fill:#636363;fill-opacity:1;stroke-width:0.238148;stroke-linecap:round;stroke-linejoin:round"
         id="rect11"
         width="7.9375"
         height="7.9375"
         x="296.41418"
         y="104.26369"
         ry="1.6290138" /><path
         id="path11"
         style="opacity:1;fill:#999999;stroke:none;stroke-width:1.67773;stroke-linecap:square;stroke-linejoin:miter;stroke-dasharray:none;stroke-opacity:1"
         d="m 303.70068,107.1082 -3.31775,3.31775 -3.31775,-3.31775 z"
         sodipodi:nodetypes="ccc" /></g><g
       id="g23"><rect
         style="fill:#434343;fill-opacity:1;stroke-width:0.238148;stroke-linecap:round;stroke-linejoin:round"
         id="rect7"
         width="7.9375"
         height="7.9375"
         x="71.143112"
         y="-304.35168"
         ry="1.6290138"
         transform="rotate(90)" /><g
         id="g15"
         transform="translate(0.04891278)"><path
           id="path8"
           style="fill:#999999;stroke:none;stroke-width:1.67773;stroke-linecap:square;stroke-linejoin:miter;stroke-dasharray:none;stroke-opacity:1"
           d="m 300.46021,78.429608 -3.31775,-3.31775 3.31775,-3.31775 z"
           sodipodi:nodetypes="ccc" /><path
           id="path15"
           style="fill:#999999;stroke:none;stroke-width:1.67773;stroke-linecap:square;stroke-linejoin:miter;stroke-dasharray:none;stroke-opacity:1"
           d="m 303.19948,78.429608 -3.31775,-3.31775 3.31775,-3.31775 z"
           sodipodi:nodetypes="ccc" /></g></g><g
       id="g24"
       transform="translate(10.642119)"><rect
         style="fill:#636363;fill-opacity:1;stroke-width:0.238148;stroke-linecap:round;stroke-linejoin:round"
         id="rect14"
         width="7.9375"
         height="7.9375"
         x="71.14312"
         y="-314.99377"
         ry="1.6290138"
         transform="rotate(90)" /><g
         id="g22"
         transform="translate(-0.16305179)"><path
           id="path16"
           style="fill:#999999;stroke:none;stroke-width:1.67773;stroke-linecap:square;stroke-linejoin:miter;stroke-dasharray:none;stroke-opacity:1"
           d="m 311.31426,78.42962 -3.31775,-3.31775 3.31775,-3.31775 z"
           sodipodi:nodetypes="ccc" /><path
           id="path17"
           style="fill:#999999;stroke:none;stroke-width:1.67773;stroke-linecap:square;stroke-linejoin:miter;stroke-dasharray:none;stroke-opacity:1"
           d="m 314.05353,78.42962 -3.31775,-3.31775 3.31775,-3.31775 z"
           sodipodi:nodetypes="ccc" /></g></g><g
       id="g25"
       transform="translate(-10.642122)"><rect
         style="fill:#2e2e2e;fill-opacity:1;stroke-width:0.238148;stroke-linecap:round;stroke-linejoin:round"
         id="rect12"
         width="7.9375"
         height="7.9375"
         x="71.143112"
         y="-325.63589"
         ry="1.6290138"
         transform="rotate(90)" /><g
         id="g21"
         transform="translate(21.333123,1.1812012e-5)"><path
           id="path20"
           style="fill:#999999;stroke:none;stroke-width:1.67773;stroke-linecap:square;stroke-linejoin:miter;stroke-dasharray:none;stroke-opacity:1"
           d="m 300.46021,78.429608 -3.31775,-3.31775 3.31775,-3.31775 z"
           sodipodi:nodetypes="ccc" /><path
           id="path21"
           style="fill:#999999;stroke:none;stroke-width:1.67773;stroke-linecap:square;stroke-linejoin:miter;stroke-dasharray:none;stroke-opacity:1"
           d="m 303.19948,78.429608 -3.31775,-3.31775 3.31775,-3.31775 z"
           sodipodi:nodetypes="ccc" /></g></g></g></svg>
